
<svg width="96" height="96" viewBox="0 0 96 96" xmlns="http://www.w3.org/2000/svg">
  <defs>
    <!-- 그라데이션 정의 -->
    <linearGradient id="primaryGradient" x1="0%" y1="0%" x2="100%" y2="100%">
      <stop offset="0%" style="stop-color:#7c3aed;stop-opacity:1" />
      <stop offset="50%" style="stop-color:#a855f7;stop-opacity:1" />
      <stop offset="100%" style="stop-color:#c084fc;stop-opacity:1" />
    </linearGradient>
    
    <linearGradient id="secondaryGradient" x1="0%" y1="0%" x2="100%" y2="100%">
      <stop offset="0%" style="stop-color:#06b6d4;stop-opacity:1" />
      <stop offset="100%" style="stop-color:#0891b2;stop-opacity:1" />
    </linearGradient>
    
    <linearGradient id="accentGradient" x1="0%" y1="0%" x2="100%" y2="100%">
      <stop offset="0%" style="stop-color:#f59e0b;stop-opacity:1" />
      <stop offset="100%" style="stop-color:#d97706;stop-opacity:1" />
    </linearGradient>
    
    <!-- 그림자 필터 -->
    <filter id="shadow" x="-20%" y="-20%" width="140%" height="140%">
      <feDropShadow dx="0" dy="4" stdDeviation="8" flood-opacity="0.3"/>
    </filter>
  </defs>
  
  <!-- 배경 원 -->
  <circle cx="48" cy="48" r="38.4" fill="url(#primaryGradient)" filter="url(#shadow)"/>
  
  <!-- 바이칼 호수 (파도) -->
  <path d="M 24.96 55.68 
           Q 48 40.32 71.04 55.68
           Q 48 63.36 24.96 55.68" 
        fill="url(#secondaryGradient)" opacity="0.8"/>
  
  <!-- 리조트 건물 실루엣 -->
  <g transform="translate(48, 36.480000000000004)">
    <!-- 메인 건물 -->
    <rect x="-11.52" y="-7.68" width="23.04" height="15.36" 
          fill="white" opacity="0.9" rx="2"/>
    
    <!-- 좌측 건물 -->
    <rect x="-19.2" y="-3.84" width="6.144" height="11.52" 
          fill="white" opacity="0.7" rx="1"/>
    
    <!-- 우측 건물 -->
    <rect x="13.056000000000001" y="-3.84" width="6.144" height="11.52" 
          fill="white" opacity="0.7" rx="1"/>
    
    <!-- 중앙 타워 -->
    <rect x="-1.536" y="-13.824" width="3.072" height="6.144" 
          fill="url(#accentGradient)" rx="1"/>
  </g>
  
  <!-- 별/다이아몬드 장식 -->
  <g transform="translate(67.2, 28.8)">
    <path d="M 0,-3.072 L 1.536,0 L 0,3.072 L -1.536,0 Z" 
          fill="white" opacity="0.8"/>
  </g>
  
  <!-- 텍스트 (작은 크기에서는 생략) -->
  
</svg>